<svg width="97" height="97" viewBox="0 0 97 97" fill="none" xmlns="http://www.w3.org/2000/svg">
<rect width="96.4268" height="96.4268" rx="48.2134" fill="#00408D"/>
<ellipse cx="71.3294" cy="49.8646" rx="10.5673" ry="10.8975" fill="#F3EFE9"/>
<path d="M44.2506 35.0042C48.9924 35.0042 52.8365 38.996 52.8365 43.9202C52.8365 48.8444 48.9925 52.8362 44.2506 52.8362C39.5087 52.8362 35.6647 48.8444 35.6647 43.9202C35.6648 38.996 39.5088 35.0042 44.2506 35.0042Z" fill="#E75234"/>
<path d="M44.2506 35.0042C48.9924 35.0042 52.8365 38.996 52.8365 43.9202C52.8365 48.8444 48.9925 52.8362 44.2506 52.8362C39.5087 52.8362 35.6647 48.8444 35.6647 43.9202C35.6648 38.996 39.5088 35.0042 44.2506 35.0042Z" stroke="#00408D"/>
<ellipse cx="20.8044" cy="51.5156" rx="7.59526" ry="7.92549" fill="#F3EFE9"/>
</svg>
